<?xml version="1.0" standalone="no"?>
<!DOCTYPE svg PUBLIC "-//W3C//DTD SVG 20010904//EN"
 "http://www.w3.org/TR/2001/REC-SVG-20010904/DTD/svg10.dtd">
<svg version="1.0" xmlns="http://www.w3.org/2000/svg"
 width="1154.000000pt" height="1280.000000pt" viewBox="0 0 1154.000000 1280.000000"
 preserveAspectRatio="xMidYMid meet">
<g transform="translate(0.000000,1280.000000) scale(0.100000,-0.100000)"
fill="#000000" stroke="none">
<path d="M5037 12698 c-103 -176 -168 -444 -169 -693 0 -275 86 -481 282 -676
82 -81 167 -143 389 -282 l93 -57 -9 -138 c-19 -322 -5 -498 53 -684 14 -44
22 -84 17 -89 -4 -4 -91 -3 -193 2 -309 18 -857 4 -1200 -32 -932 -96 -1682
-515 -2268 -1268 -421 -541 -701 -1137 -891 -1899 -77 -307 -108 -474 -182
-982 -160 -1103 -345 -2002 -623 -3020 -211 -778 -272 -1077 -322 -1598 -16
-164 -16 -179 1 -275 42 -243 114 -386 271 -538 187 -181 463 -306 845 -383
270 -54 631 -92 806 -83 477 23 967 109 1403 246 406 127 1148 232 2615 371
674 63 1101 145 1575 301 446 147 916 372 1288 616 840 552 1372 1337 1597
2353 50 225 95 529 111 748 l7 94 75 34 c61 28 78 32 88 22 7 -7 29 -69 48
-138 84 -294 104 -551 65 -845 -20 -153 -24 -222 -24 -465 0 -284 10 -400 48
-565 11 -49 11 -48 18 76 11 203 56 404 138 614 50 129 62 157 159 355 96 197
136 294 196 471 108 320 170 666 193 1073 8 141 -26 518 -68 756 -13 77 -23
195 -29 360 -16 432 -64 741 -160 1015 -39 110 -122 280 -180 366 -128 190
-455 542 -581 626 -34 23 -37 29 -48 100 -13 88 -47 177 -109 288 -176 314
-424 527 -733 629 -176 58 -271 70 -549 70 -214 0 -257 -2 -345 -22 -55 -12
-103 -18 -107 -14 -3 4 -16 45 -28 91 -148 583 -681 1047 -1630 1419 -58 22
-222 85 -365 138 -521 194 -976 399 -1140 512 -124 85 -258 267 -332 448 -76
186 -97 336 -73 519 5 38 7 71 6 73 -2 2 -15 -17 -29 -40z"/>
</g>
</svg>
