<?xml version="1.0" standalone="no"?>
<!DOCTYPE svg PUBLIC "-//W3C//DTD SVG 20010904//EN"
 "http://www.w3.org/TR/2001/REC-SVG-20010904/DTD/svg10.dtd">
<svg version="1.0" xmlns="http://www.w3.org/2000/svg"
 width="1280.000000pt" height="1280.000000pt" viewBox="0 0 1280.000000 1280.000000"
 preserveAspectRatio="xMidYMid meet">
<g transform="translate(0.000000,1280.000000) scale(0.100000,-0.100000)"
fill="#000000" stroke="none">
<path d="M6767 11323 c-28 -54 -195 -419 -220 -478 -63 -151 -146 -443 -197
-690 -11 -54 -25 -102 -31 -106 -6 -3 -35 -9 -63 -13 -46 -5 -65 -1 -147 33
-355 144 -872 197 -1234 125 -140 -28 -264 -73 -490 -179 -429 -200 -666 -277
-936 -304 -208 -20 -412 36 -523 146 -83 82 -110 134 -142 271 -34 153 -47
138 -42 -48 3 -116 5 -130 35 -193 75 -158 285 -308 520 -371 48 -12 88 -27
90 -33 2 -6 -22 -25 -54 -43 -181 -103 -488 -321 -713 -509 -150 -125 -411
-386 -532 -531 -487 -586 -775 -1262 -872 -2045 -32 -256 -39 -402 -33 -696 8
-490 66 -835 208 -1244 90 -261 179 -452 320 -690 165 -277 341 -504 584 -754
794 -815 1816 -1278 3225 -1460 371 -48 497 -55 955 -56 449 0 530 4 855 46
1232 157 2279 673 3085 1520 502 527 844 1219 999 2024 69 358 91 594 91 980
0 332 -10 460 -55 720 -116 662 -419 1294 -885 1840 -96 113 -385 405 -487
493 -43 37 -78 72 -78 79 0 19 140 26 298 14 217 -18 389 -45 626 -102 44 -10
82 -17 84 -15 5 6 -180 65 -339 110 -261 73 -495 118 -710 136 -74 7 -143 13
-154 15 -11 3 -69 41 -130 86 -415 307 -845 524 -1290 650 -126 36 -167 52
-154 62 2 2 34 24 71 50 61 43 153 136 143 145 -2 2 -30 -12 -62 -31 -92 -55
-214 -114 -274 -131 -50 -15 -63 -15 -189 4 -150 22 -476 43 -675 43 -105 0
-143 -4 -200 -21 -48 -15 -72 -19 -80 -11 -14 14 -10 431 5 550 30 233 101
379 211 435 42 21 49 29 49 54 0 72 -197 150 -379 150 -67 0 -71 -1 -84 -27z"/>
</g>
</svg>
